<mxfile host="app.diagrams.net" modified="2023-12-07T01:02:57.750Z" agent="Mozilla/5.0 (Windows NT 10.0; Win64; x64) AppleWebKit/537.36 (KHTML, like Gecko) Chrome/119.0.0.0 Safari/537.36" etag="IEvmo4K28GRdhZScjKVn" version="22.1.7" type="github">
  <diagram id="R2lEEEUBdFMjLlhIrx00" name="Page-1">
    <mxGraphModel dx="1730" dy="444" grid="1" gridSize="10" guides="1" tooltips="1" connect="1" arrows="1" fold="1" page="1" pageScale="1" pageWidth="850" pageHeight="1100" math="0" shadow="0" extFonts="Permanent Marker^https://fonts.googleapis.com/css?family=Permanent+Marker">
      <root>
        <mxCell id="0" />
        <mxCell id="1" parent="0" />
        <mxCell id="Iv_WHNl3EavyuolXd3bb-2" value="booking" style="rounded=1;whiteSpace=wrap;html=1;" parent="1" vertex="1">
          <mxGeometry x="370" y="285" width="80" height="40" as="geometry" />
        </mxCell>
        <mxCell id="Iv_WHNl3EavyuolXd3bb-3" value="review" style="rounded=1;whiteSpace=wrap;html=1;" parent="1" vertex="1">
          <mxGeometry x="680" y="495" width="80" height="40" as="geometry" />
        </mxCell>
        <mxCell id="Iv_WHNl3EavyuolXd3bb-4" value="&lt;div&gt;placeToBook&lt;/div&gt;" style="rounded=1;whiteSpace=wrap;html=1;" parent="1" vertex="1">
          <mxGeometry x="105" y="495" width="80" height="40" as="geometry" />
        </mxCell>
        <mxCell id="Iv_WHNl3EavyuolXd3bb-5" value="guest" style="rounded=1;whiteSpace=wrap;html=1;" parent="1" vertex="1">
          <mxGeometry x="680" y="285" width="80" height="40" as="geometry" />
        </mxCell>
        <mxCell id="Iv_WHNl3EavyuolXd3bb-6" value="&lt;div&gt;host&lt;/div&gt;" style="rounded=1;whiteSpace=wrap;html=1;" parent="1" vertex="1">
          <mxGeometry x="105" y="285" width="80" height="40" as="geometry" />
        </mxCell>
        <mxCell id="Iv_WHNl3EavyuolXd3bb-7" value="user" style="rounded=1;whiteSpace=wrap;html=1;" parent="1" vertex="1">
          <mxGeometry x="160" y="95" width="80" height="40" as="geometry" />
        </mxCell>
        <mxCell id="Iv_WHNl3EavyuolXd3bb-8" value="name" style="ellipse;whiteSpace=wrap;html=1;" parent="1" vertex="1">
          <mxGeometry x="160" width="80" height="50" as="geometry" />
        </mxCell>
        <mxCell id="Iv_WHNl3EavyuolXd3bb-9" value="password" style="ellipse;whiteSpace=wrap;html=1;" parent="1" vertex="1">
          <mxGeometry x="280" y="90" width="80" height="50" as="geometry" />
        </mxCell>
        <mxCell id="Iv_WHNl3EavyuolXd3bb-10" value="phoneNumber" style="ellipse;whiteSpace=wrap;html=1;" parent="1" vertex="1">
          <mxGeometry x="30" y="160" width="80" height="50" as="geometry" />
        </mxCell>
        <mxCell id="Iv_WHNl3EavyuolXd3bb-12" value="&lt;u&gt;idUser&lt;/u&gt;" style="ellipse;whiteSpace=wrap;html=1;" parent="1" vertex="1">
          <mxGeometry x="40" y="20" width="80" height="50" as="geometry" />
        </mxCell>
        <mxCell id="Iv_WHNl3EavyuolXd3bb-13" value="email" style="ellipse;whiteSpace=wrap;html=1;" parent="1" vertex="1">
          <mxGeometry x="280" y="20" width="80" height="50" as="geometry" />
        </mxCell>
        <mxCell id="Iv_WHNl3EavyuolXd3bb-14" value="" style="endArrow=none;html=1;rounded=0;entryX=0.763;entryY=0.12;entryDx=0;entryDy=0;exitX=0;exitY=0.5;exitDx=0;exitDy=0;entryPerimeter=0;" parent="1" source="Iv_WHNl3EavyuolXd3bb-7" target="Iv_WHNl3EavyuolXd3bb-10" edge="1">
          <mxGeometry width="50" height="50" relative="1" as="geometry">
            <mxPoint x="400" y="350" as="sourcePoint" />
            <mxPoint x="96.81980515339455" y="163.78679656440363" as="targetPoint" />
          </mxGeometry>
        </mxCell>
        <mxCell id="Iv_WHNl3EavyuolXd3bb-16" value="" style="endArrow=none;html=1;rounded=0;entryX=1;entryY=1;entryDx=0;entryDy=0;exitX=0;exitY=0.25;exitDx=0;exitDy=0;" parent="1" source="Iv_WHNl3EavyuolXd3bb-7" target="Iv_WHNl3EavyuolXd3bb-12" edge="1">
          <mxGeometry width="50" height="50" relative="1" as="geometry">
            <mxPoint x="400" y="350" as="sourcePoint" />
            <mxPoint x="450" y="300" as="targetPoint" />
          </mxGeometry>
        </mxCell>
        <mxCell id="Iv_WHNl3EavyuolXd3bb-17" value="" style="endArrow=none;html=1;rounded=0;entryX=0.5;entryY=1;entryDx=0;entryDy=0;exitX=0.5;exitY=0;exitDx=0;exitDy=0;" parent="1" source="Iv_WHNl3EavyuolXd3bb-7" target="Iv_WHNl3EavyuolXd3bb-8" edge="1">
          <mxGeometry width="50" height="50" relative="1" as="geometry">
            <mxPoint x="400" y="350" as="sourcePoint" />
            <mxPoint x="450" y="300" as="targetPoint" />
          </mxGeometry>
        </mxCell>
        <mxCell id="Iv_WHNl3EavyuolXd3bb-18" value="" style="endArrow=none;html=1;rounded=0;entryX=0.075;entryY=0.76;entryDx=0;entryDy=0;exitX=1;exitY=0.25;exitDx=0;exitDy=0;entryPerimeter=0;" parent="1" source="Iv_WHNl3EavyuolXd3bb-7" target="Iv_WHNl3EavyuolXd3bb-13" edge="1">
          <mxGeometry width="50" height="50" relative="1" as="geometry">
            <mxPoint x="400" y="350" as="sourcePoint" />
            <mxPoint x="450" y="300" as="targetPoint" />
          </mxGeometry>
        </mxCell>
        <mxCell id="Iv_WHNl3EavyuolXd3bb-19" value="" style="endArrow=none;html=1;rounded=0;entryX=1;entryY=0.5;entryDx=0;entryDy=0;exitX=0;exitY=0.5;exitDx=0;exitDy=0;" parent="1" source="Iv_WHNl3EavyuolXd3bb-9" target="Iv_WHNl3EavyuolXd3bb-7" edge="1">
          <mxGeometry width="50" height="50" relative="1" as="geometry">
            <mxPoint x="400" y="350" as="sourcePoint" />
            <mxPoint x="450" y="300" as="targetPoint" />
          </mxGeometry>
        </mxCell>
        <mxCell id="Iv_WHNl3EavyuolXd3bb-20" value="ISA" style="triangle;whiteSpace=wrap;html=1;direction=south;" parent="1" vertex="1">
          <mxGeometry x="420" y="200" width="65" height="40" as="geometry" />
        </mxCell>
        <mxCell id="Iv_WHNl3EavyuolXd3bb-21" value="" style="endArrow=none;html=1;rounded=0;entryX=0.25;entryY=1;entryDx=0;entryDy=0;exitX=-0.001;exitY=0.804;exitDx=0;exitDy=0;exitPerimeter=0;" parent="1" source="Iv_WHNl3EavyuolXd3bb-20" target="Iv_WHNl3EavyuolXd3bb-7" edge="1">
          <mxGeometry width="50" height="50" relative="1" as="geometry">
            <mxPoint x="180" y="180" as="sourcePoint" />
            <mxPoint x="184" y="140" as="targetPoint" />
          </mxGeometry>
        </mxCell>
        <mxCell id="Iv_WHNl3EavyuolXd3bb-22" value="" style="endArrow=none;html=1;rounded=0;exitX=0;exitY=0.25;exitDx=0;exitDy=0;entryX=0.705;entryY=1.015;entryDx=0;entryDy=0;entryPerimeter=0;" parent="1" source="Iv_WHNl3EavyuolXd3bb-20" target="Iv_WHNl3EavyuolXd3bb-7" edge="1">
          <mxGeometry width="50" height="50" relative="1" as="geometry">
            <mxPoint x="400" y="350" as="sourcePoint" />
            <mxPoint x="216" y="140" as="targetPoint" />
          </mxGeometry>
        </mxCell>
        <mxCell id="Iv_WHNl3EavyuolXd3bb-23" value="" style="endArrow=none;html=1;rounded=0;entryX=0.5;entryY=1;entryDx=0;entryDy=0;exitX=0.75;exitY=0;exitDx=0;exitDy=0;" parent="1" source="Iv_WHNl3EavyuolXd3bb-6" target="Iv_WHNl3EavyuolXd3bb-20" edge="1">
          <mxGeometry width="50" height="50" relative="1" as="geometry">
            <mxPoint x="150" y="280" as="sourcePoint" />
            <mxPoint x="-10" y="380" as="targetPoint" />
          </mxGeometry>
        </mxCell>
        <mxCell id="Iv_WHNl3EavyuolXd3bb-24" value="" style="endArrow=none;html=1;rounded=0;entryX=0.5;entryY=0;entryDx=0;entryDy=0;exitX=0;exitY=0;exitDx=0;exitDy=0;" parent="1" source="Iv_WHNl3EavyuolXd3bb-5" target="Iv_WHNl3EavyuolXd3bb-20" edge="1">
          <mxGeometry width="50" height="50" relative="1" as="geometry">
            <mxPoint x="-60" y="430" as="sourcePoint" />
            <mxPoint x="-10" y="380" as="targetPoint" />
          </mxGeometry>
        </mxCell>
        <mxCell id="Iv_WHNl3EavyuolXd3bb-25" style="edgeStyle=orthogonalEdgeStyle;rounded=0;orthogonalLoop=1;jettySize=auto;html=1;exitX=0.5;exitY=0;exitDx=0;exitDy=0;entryX=0.5;entryY=1;entryDx=0;entryDy=0;" parent="1" source="Iv_WHNl3EavyuolXd3bb-26" target="Iv_WHNl3EavyuolXd3bb-6" edge="1">
          <mxGeometry relative="1" as="geometry" />
        </mxCell>
        <mxCell id="Iv_WHNl3EavyuolXd3bb-26" value="it has" style="rhombus;whiteSpace=wrap;html=1;" parent="1" vertex="1">
          <mxGeometry x="110" y="377.5" width="70" height="70" as="geometry" />
        </mxCell>
        <mxCell id="Iv_WHNl3EavyuolXd3bb-27" value="" style="endArrow=none;html=1;rounded=0;exitX=0.25;exitY=0;exitDx=0;exitDy=0;entryX=0.203;entryY=0.715;entryDx=0;entryDy=0;entryPerimeter=0;" parent="1" source="Iv_WHNl3EavyuolXd3bb-4" target="Iv_WHNl3EavyuolXd3bb-26" edge="1">
          <mxGeometry width="50" height="50" relative="1" as="geometry">
            <mxPoint x="-60" y="530" as="sourcePoint" />
            <mxPoint x="108" y="430" as="targetPoint" />
          </mxGeometry>
        </mxCell>
        <mxCell id="Iv_WHNl3EavyuolXd3bb-28" value="" style="endArrow=none;html=1;rounded=0;entryX=0.789;entryY=0.726;entryDx=0;entryDy=0;exitX=0.75;exitY=0;exitDx=0;exitDy=0;entryPerimeter=0;" parent="1" source="Iv_WHNl3EavyuolXd3bb-4" target="Iv_WHNl3EavyuolXd3bb-26" edge="1">
          <mxGeometry width="50" height="50" relative="1" as="geometry">
            <mxPoint x="-60" y="530" as="sourcePoint" />
            <mxPoint x="-10" y="480" as="targetPoint" />
          </mxGeometry>
        </mxCell>
        <mxCell id="Iv_WHNl3EavyuolXd3bb-29" value="nLivingRooms" style="ellipse;whiteSpace=wrap;html=1;" parent="1" vertex="1">
          <mxGeometry x="25" y="400" width="70" height="40" as="geometry" />
        </mxCell>
        <mxCell id="Iv_WHNl3EavyuolXd3bb-30" value="price" style="ellipse;whiteSpace=wrap;html=1;" parent="1" vertex="1">
          <mxGeometry x="-110" y="600" width="70" height="40" as="geometry" />
        </mxCell>
        <mxCell id="Iv_WHNl3EavyuolXd3bb-31" value="nKitchen" style="ellipse;whiteSpace=wrap;html=1;" parent="1" vertex="1">
          <mxGeometry x="-130" y="560" width="70" height="40" as="geometry" />
        </mxCell>
        <mxCell id="Iv_WHNl3EavyuolXd3bb-32" value="nBathroom" style="ellipse;whiteSpace=wrap;html=1;" parent="1" vertex="1">
          <mxGeometry x="-70" y="650" width="70" height="40" as="geometry" />
        </mxCell>
        <mxCell id="Iv_WHNl3EavyuolXd3bb-33" value="nRooms" style="ellipse;whiteSpace=wrap;html=1;" parent="1" vertex="1">
          <mxGeometry x="-10" y="690" width="70" height="30" as="geometry" />
        </mxCell>
        <mxCell id="Iv_WHNl3EavyuolXd3bb-34" value="meanReview" style="ellipse;whiteSpace=wrap;html=1;" parent="1" vertex="1">
          <mxGeometry x="65" y="690" width="70" height="30" as="geometry" />
        </mxCell>
        <mxCell id="Iv_WHNl3EavyuolXd3bb-35" value="&lt;u&gt;idPlaceToBook&lt;/u&gt;" style="ellipse;whiteSpace=wrap;html=1;" parent="1" vertex="1">
          <mxGeometry x="120" y="710" width="85" height="50" as="geometry" />
        </mxCell>
        <mxCell id="Iv_WHNl3EavyuolXd3bb-36" value="" style="endArrow=none;html=1;rounded=0;entryX=0;entryY=0;entryDx=0;entryDy=0;exitX=0.5;exitY=1;exitDx=0;exitDy=0;" parent="1" source="Iv_WHNl3EavyuolXd3bb-29" target="Iv_WHNl3EavyuolXd3bb-4" edge="1">
          <mxGeometry width="50" height="50" relative="1" as="geometry">
            <mxPoint x="-60" y="530" as="sourcePoint" />
            <mxPoint x="-10" y="480" as="targetPoint" />
          </mxGeometry>
        </mxCell>
        <mxCell id="Iv_WHNl3EavyuolXd3bb-37" value="" style="endArrow=none;html=1;rounded=0;entryX=0;entryY=0.75;entryDx=0;entryDy=0;exitX=0.994;exitY=0.325;exitDx=0;exitDy=0;exitPerimeter=0;" parent="1" source="Iv_WHNl3EavyuolXd3bb-31" target="Iv_WHNl3EavyuolXd3bb-4" edge="1">
          <mxGeometry width="50" height="50" relative="1" as="geometry">
            <mxPoint x="-60" y="530" as="sourcePoint" />
            <mxPoint x="-10" y="480" as="targetPoint" />
          </mxGeometry>
        </mxCell>
        <mxCell id="Iv_WHNl3EavyuolXd3bb-38" value="" style="endArrow=none;html=1;rounded=0;entryX=0;entryY=0.75;entryDx=0;entryDy=0;exitX=0.986;exitY=0.243;exitDx=0;exitDy=0;exitPerimeter=0;" parent="1" source="Iv_WHNl3EavyuolXd3bb-30" target="Iv_WHNl3EavyuolXd3bb-4" edge="1">
          <mxGeometry width="50" height="50" relative="1" as="geometry">
            <mxPoint x="-60" y="530" as="sourcePoint" />
            <mxPoint x="-10" y="480" as="targetPoint" />
          </mxGeometry>
        </mxCell>
        <mxCell id="Iv_WHNl3EavyuolXd3bb-39" value="" style="endArrow=none;html=1;rounded=0;entryX=0;entryY=1;entryDx=0;entryDy=0;exitX=0.5;exitY=0;exitDx=0;exitDy=0;" parent="1" source="Iv_WHNl3EavyuolXd3bb-32" target="Iv_WHNl3EavyuolXd3bb-4" edge="1">
          <mxGeometry width="50" height="50" relative="1" as="geometry">
            <mxPoint x="-60" y="530" as="sourcePoint" />
            <mxPoint x="-10" y="480" as="targetPoint" />
          </mxGeometry>
        </mxCell>
        <mxCell id="Iv_WHNl3EavyuolXd3bb-40" value="" style="endArrow=none;html=1;rounded=0;exitX=0.75;exitY=1;exitDx=0;exitDy=0;entryX=0.5;entryY=0;entryDx=0;entryDy=0;" parent="1" source="Iv_WHNl3EavyuolXd3bb-4" target="Iv_WHNl3EavyuolXd3bb-35" edge="1">
          <mxGeometry width="50" height="50" relative="1" as="geometry">
            <mxPoint x="-60" y="530" as="sourcePoint" />
            <mxPoint x="180" y="680" as="targetPoint" />
          </mxGeometry>
        </mxCell>
        <mxCell id="Iv_WHNl3EavyuolXd3bb-41" value="" style="endArrow=none;html=1;rounded=0;entryX=0.5;entryY=0;entryDx=0;entryDy=0;exitX=0.5;exitY=1;exitDx=0;exitDy=0;" parent="1" source="Iv_WHNl3EavyuolXd3bb-4" target="Iv_WHNl3EavyuolXd3bb-34" edge="1">
          <mxGeometry width="50" height="50" relative="1" as="geometry">
            <mxPoint x="-60" y="530" as="sourcePoint" />
            <mxPoint x="-10" y="480" as="targetPoint" />
          </mxGeometry>
        </mxCell>
        <mxCell id="Iv_WHNl3EavyuolXd3bb-42" value="" style="endArrow=none;html=1;rounded=0;entryX=0.5;entryY=0;entryDx=0;entryDy=0;exitX=0.25;exitY=1;exitDx=0;exitDy=0;" parent="1" source="Iv_WHNl3EavyuolXd3bb-4" target="Iv_WHNl3EavyuolXd3bb-33" edge="1">
          <mxGeometry width="50" height="50" relative="1" as="geometry">
            <mxPoint x="150" y="540" as="sourcePoint" />
            <mxPoint x="-10" y="480" as="targetPoint" />
          </mxGeometry>
        </mxCell>
        <mxCell id="Iv_WHNl3EavyuolXd3bb-43" style="edgeStyle=orthogonalEdgeStyle;rounded=0;orthogonalLoop=1;jettySize=auto;html=1;exitX=0;exitY=0.5;exitDx=0;exitDy=0;entryX=1;entryY=0.5;entryDx=0;entryDy=0;" parent="1" source="Iv_WHNl3EavyuolXd3bb-44" target="Iv_WHNl3EavyuolXd3bb-4" edge="1">
          <mxGeometry relative="1" as="geometry" />
        </mxCell>
        <mxCell id="Iv_WHNl3EavyuolXd3bb-44" value="has a" style="rhombus;whiteSpace=wrap;html=1;" parent="1" vertex="1">
          <mxGeometry x="255" y="480" width="70" height="70" as="geometry" />
        </mxCell>
        <mxCell id="Iv_WHNl3EavyuolXd3bb-49" value="&lt;u&gt;idReview&lt;/u&gt;" style="ellipse;whiteSpace=wrap;html=1;" parent="1" vertex="1">
          <mxGeometry x="790" y="490" width="80" height="50" as="geometry" />
        </mxCell>
        <mxCell id="Iv_WHNl3EavyuolXd3bb-50" value="" style="endArrow=none;html=1;rounded=0;entryX=0;entryY=0.5;entryDx=0;entryDy=0;exitX=1;exitY=0.5;exitDx=0;exitDy=0;" parent="1" source="Iv_WHNl3EavyuolXd3bb-3" target="Iv_WHNl3EavyuolXd3bb-49" edge="1">
          <mxGeometry width="50" height="50" relative="1" as="geometry">
            <mxPoint x="637.5" y="775" as="sourcePoint" />
            <mxPoint x="37.5" y="735" as="targetPoint" />
          </mxGeometry>
        </mxCell>
        <mxCell id="Iv_WHNl3EavyuolXd3bb-51" value="textReview" style="ellipse;whiteSpace=wrap;html=1;" parent="1" vertex="1">
          <mxGeometry x="680" y="600" width="80" height="50" as="geometry" />
        </mxCell>
        <mxCell id="Iv_WHNl3EavyuolXd3bb-52" value="" style="endArrow=none;html=1;rounded=0;exitX=0.5;exitY=0;exitDx=0;exitDy=0;entryX=0.5;entryY=1;entryDx=0;entryDy=0;" parent="1" source="Iv_WHNl3EavyuolXd3bb-51" target="Iv_WHNl3EavyuolXd3bb-3" edge="1">
          <mxGeometry width="50" height="50" relative="1" as="geometry">
            <mxPoint x="487.5" y="835" as="sourcePoint" />
            <mxPoint x="468.5" y="845" as="targetPoint" />
          </mxGeometry>
        </mxCell>
        <mxCell id="Iv_WHNl3EavyuolXd3bb-53" value="ReviewValue" style="ellipse;whiteSpace=wrap;html=1;" parent="1" vertex="1">
          <mxGeometry x="790" y="575" width="80" height="50" as="geometry" />
        </mxCell>
        <mxCell id="Iv_WHNl3EavyuolXd3bb-54" value="" style="endArrow=none;html=1;rounded=0;entryX=0.5;entryY=0;entryDx=0;entryDy=0;exitX=0.75;exitY=1;exitDx=0;exitDy=0;" parent="1" source="Iv_WHNl3EavyuolXd3bb-3" target="Iv_WHNl3EavyuolXd3bb-53" edge="1">
          <mxGeometry width="50" height="50" relative="1" as="geometry">
            <mxPoint x="627.5" y="795" as="sourcePoint" />
            <mxPoint x="697.5" y="875" as="targetPoint" />
          </mxGeometry>
        </mxCell>
        <mxCell id="Iv_WHNl3EavyuolXd3bb-55" value="city" style="ellipse;whiteSpace=wrap;html=1;" parent="1" vertex="1">
          <mxGeometry x="-290" y="407.5" width="70" height="45" as="geometry" />
        </mxCell>
        <mxCell id="Iv_WHNl3EavyuolXd3bb-56" value="country" style="ellipse;whiteSpace=wrap;html=1;" parent="1" vertex="1">
          <mxGeometry x="-425" y="462.5" width="66.25" height="35" as="geometry" />
        </mxCell>
        <mxCell id="Iv_WHNl3EavyuolXd3bb-57" value="" style="endArrow=none;html=1;rounded=0;exitX=1;exitY=1;exitDx=0;exitDy=0;entryX=0;entryY=0.25;entryDx=0;entryDy=0;" parent="1" source="Iv_WHNl3EavyuolXd3bb-56" target="Iv_WHNl3EavyuolXd3bb-97" edge="1">
          <mxGeometry width="50" height="50" relative="1" as="geometry">
            <mxPoint x="-203.75" y="187.5" as="sourcePoint" />
            <mxPoint x="-420" y="452.5" as="targetPoint" />
          </mxGeometry>
        </mxCell>
        <mxCell id="Iv_WHNl3EavyuolXd3bb-58" value="" style="endArrow=none;html=1;rounded=0;entryX=0.5;entryY=0;entryDx=0;entryDy=0;exitX=0.5;exitY=1;exitDx=0;exitDy=0;" parent="1" source="Iv_WHNl3EavyuolXd3bb-55" target="Iv_WHNl3EavyuolXd3bb-97" edge="1">
          <mxGeometry width="50" height="50" relative="1" as="geometry">
            <mxPoint x="-203.75" y="387.5" as="sourcePoint" />
            <mxPoint x="-380" y="427.5" as="targetPoint" />
          </mxGeometry>
        </mxCell>
        <mxCell id="Iv_WHNl3EavyuolXd3bb-59" value="state" style="ellipse;whiteSpace=wrap;html=1;" parent="1" vertex="1">
          <mxGeometry x="-426.87" y="532.5" width="70" height="32.5" as="geometry" />
        </mxCell>
        <mxCell id="Iv_WHNl3EavyuolXd3bb-60" value="" style="endArrow=none;html=1;rounded=0;entryX=0;entryY=0.5;entryDx=0;entryDy=0;exitX=1;exitY=0.5;exitDx=0;exitDy=0;" parent="1" source="Iv_WHNl3EavyuolXd3bb-59" target="Iv_WHNl3EavyuolXd3bb-97" edge="1">
          <mxGeometry width="50" height="50" relative="1" as="geometry">
            <mxPoint x="-263.75" y="487.5" as="sourcePoint" />
            <mxPoint x="-478.45113572690843" y="470.07276030191383" as="targetPoint" />
          </mxGeometry>
        </mxCell>
        <mxCell id="Iv_WHNl3EavyuolXd3bb-61" value="adress" style="ellipse;whiteSpace=wrap;html=1;" parent="1" vertex="1">
          <mxGeometry x="-375" y="407.5" width="70" height="35" as="geometry" />
        </mxCell>
        <mxCell id="Iv_WHNl3EavyuolXd3bb-62" value="" style="endArrow=none;html=1;rounded=0;exitX=0.5;exitY=1;exitDx=0;exitDy=0;entryX=0;entryY=0;entryDx=0;entryDy=0;" parent="1" source="Iv_WHNl3EavyuolXd3bb-61" target="Iv_WHNl3EavyuolXd3bb-97" edge="1">
          <mxGeometry width="50" height="50" relative="1" as="geometry">
            <mxPoint x="-405" y="267.5" as="sourcePoint" />
            <mxPoint x="-408" y="434.5" as="targetPoint" />
          </mxGeometry>
        </mxCell>
        <mxCell id="Iv_WHNl3EavyuolXd3bb-65" value="arrivalDate" style="ellipse;whiteSpace=wrap;html=1;" parent="1" vertex="1">
          <mxGeometry x="510" y="440" width="70" height="40" as="geometry" />
        </mxCell>
        <mxCell id="Iv_WHNl3EavyuolXd3bb-66" value="departureDate" style="ellipse;whiteSpace=wrap;html=1;" parent="1" vertex="1">
          <mxGeometry x="420" y="430" width="82.5" height="47.5" as="geometry" />
        </mxCell>
        <mxCell id="Iv_WHNl3EavyuolXd3bb-67" value="" style="endArrow=none;html=1;rounded=0;entryX=0.75;entryY=1;entryDx=0;entryDy=0;exitX=0.5;exitY=0;exitDx=0;exitDy=0;" parent="1" source="Iv_WHNl3EavyuolXd3bb-65" target="Iv_WHNl3EavyuolXd3bb-2" edge="1">
          <mxGeometry width="50" height="50" relative="1" as="geometry">
            <mxPoint x="77.5" y="277.5" as="sourcePoint" />
            <mxPoint x="127.5" y="227.5" as="targetPoint" />
          </mxGeometry>
        </mxCell>
        <mxCell id="Iv_WHNl3EavyuolXd3bb-68" value="" style="endArrow=none;html=1;rounded=0;entryX=0.5;entryY=0;entryDx=0;entryDy=0;exitX=0.5;exitY=1;exitDx=0;exitDy=0;" parent="1" source="Iv_WHNl3EavyuolXd3bb-2" target="Iv_WHNl3EavyuolXd3bb-66" edge="1">
          <mxGeometry width="50" height="50" relative="1" as="geometry">
            <mxPoint x="257.5" y="377.5" as="sourcePoint" />
            <mxPoint x="307.5" y="327.5" as="targetPoint" />
          </mxGeometry>
        </mxCell>
        <mxCell id="Iv_WHNl3EavyuolXd3bb-69" value="&lt;u&gt;idBooking&lt;/u&gt;" style="ellipse;whiteSpace=wrap;html=1;" parent="1" vertex="1">
          <mxGeometry x="570" y="412.5" width="70" height="40" as="geometry" />
        </mxCell>
        <mxCell id="Iv_WHNl3EavyuolXd3bb-70" value="" style="endArrow=none;html=1;rounded=0;exitX=0.5;exitY=0;exitDx=0;exitDy=0;entryX=0.925;entryY=0.975;entryDx=0;entryDy=0;entryPerimeter=0;" parent="1" source="Iv_WHNl3EavyuolXd3bb-69" target="Iv_WHNl3EavyuolXd3bb-2" edge="1">
          <mxGeometry width="50" height="50" relative="1" as="geometry">
            <mxPoint x="107.5" y="377.5" as="sourcePoint" />
            <mxPoint x="450" y="305" as="targetPoint" />
          </mxGeometry>
        </mxCell>
        <mxCell id="Iv_WHNl3EavyuolXd3bb-71" value="" style="endArrow=none;html=1;rounded=0;entryX=0.857;entryY=0.357;entryDx=0;entryDy=0;exitX=0;exitY=0.25;exitDx=0;exitDy=0;entryPerimeter=0;" parent="1" source="Iv_WHNl3EavyuolXd3bb-3" target="Iv_WHNl3EavyuolXd3bb-44" edge="1">
          <mxGeometry width="50" height="50" relative="1" as="geometry">
            <mxPoint x="328" y="750" as="sourcePoint" />
            <mxPoint x="380" y="760" as="targetPoint" />
          </mxGeometry>
        </mxCell>
        <mxCell id="Iv_WHNl3EavyuolXd3bb-72" value="" style="endArrow=none;html=1;rounded=0;entryX=0.857;entryY=0.657;entryDx=0;entryDy=0;exitX=0;exitY=0.75;exitDx=0;exitDy=0;entryPerimeter=0;" parent="1" source="Iv_WHNl3EavyuolXd3bb-3" target="Iv_WHNl3EavyuolXd3bb-44" edge="1">
          <mxGeometry width="50" height="50" relative="1" as="geometry">
            <mxPoint x="330" y="810" as="sourcePoint" />
            <mxPoint x="380" y="760" as="targetPoint" />
          </mxGeometry>
        </mxCell>
        <mxCell id="Iv_WHNl3EavyuolXd3bb-73" style="edgeStyle=orthogonalEdgeStyle;rounded=0;orthogonalLoop=1;jettySize=auto;html=1;exitX=1;exitY=0.5;exitDx=0;exitDy=0;" parent="1" source="Iv_WHNl3EavyuolXd3bb-74" target="Iv_WHNl3EavyuolXd3bb-5" edge="1">
          <mxGeometry relative="1" as="geometry" />
        </mxCell>
        <mxCell id="Iv_WHNl3EavyuolXd3bb-74" value="makes a" style="rhombus;whiteSpace=wrap;html=1;" parent="1" vertex="1">
          <mxGeometry x="530" y="270" width="70" height="70" as="geometry" />
        </mxCell>
        <mxCell id="Iv_WHNl3EavyuolXd3bb-75" value="" style="endArrow=none;html=1;rounded=0;entryX=0.122;entryY=0.642;entryDx=0;entryDy=0;entryPerimeter=0;exitX=1;exitY=0.75;exitDx=0;exitDy=0;" parent="1" source="Iv_WHNl3EavyuolXd3bb-2" target="Iv_WHNl3EavyuolXd3bb-74" edge="1">
          <mxGeometry width="50" height="50" relative="1" as="geometry">
            <mxPoint x="460" y="320" as="sourcePoint" />
            <mxPoint x="610" y="230" as="targetPoint" />
          </mxGeometry>
        </mxCell>
        <mxCell id="Iv_WHNl3EavyuolXd3bb-76" value="" style="endArrow=none;html=1;rounded=0;entryX=0.13;entryY=0.364;entryDx=0;entryDy=0;exitX=1;exitY=0.25;exitDx=0;exitDy=0;entryPerimeter=0;" parent="1" source="Iv_WHNl3EavyuolXd3bb-2" target="Iv_WHNl3EavyuolXd3bb-74" edge="1">
          <mxGeometry width="50" height="50" relative="1" as="geometry">
            <mxPoint x="523" y="290" as="sourcePoint" />
            <mxPoint x="340" y="190" as="targetPoint" />
          </mxGeometry>
        </mxCell>
        <mxCell id="Iv_WHNl3EavyuolXd3bb-77" style="rounded=0;orthogonalLoop=1;jettySize=auto;html=1;exitX=0;exitY=1;exitDx=0;exitDy=0;entryX=1;entryY=0;entryDx=0;entryDy=0;" parent="1" source="Iv_WHNl3EavyuolXd3bb-78" target="Iv_WHNl3EavyuolXd3bb-4" edge="1">
          <mxGeometry relative="1" as="geometry" />
        </mxCell>
        <mxCell id="Iv_WHNl3EavyuolXd3bb-78" value="has a" style="rhombus;whiteSpace=wrap;html=1;" parent="1" vertex="1">
          <mxGeometry x="255" y="350" width="70" height="70" as="geometry" />
        </mxCell>
        <mxCell id="Iv_WHNl3EavyuolXd3bb-79" value="" style="endArrow=none;html=1;rounded=0;exitX=0.673;exitY=0.169;exitDx=0;exitDy=0;exitPerimeter=0;entryX=0;entryY=0.25;entryDx=0;entryDy=0;" parent="1" source="Iv_WHNl3EavyuolXd3bb-78" target="Iv_WHNl3EavyuolXd3bb-2" edge="1">
          <mxGeometry width="50" height="50" relative="1" as="geometry">
            <mxPoint x="360" y="300" as="sourcePoint" />
            <mxPoint x="370" y="300" as="targetPoint" />
          </mxGeometry>
        </mxCell>
        <mxCell id="Iv_WHNl3EavyuolXd3bb-80" value="" style="endArrow=none;html=1;rounded=0;entryX=0.003;entryY=0.877;entryDx=0;entryDy=0;entryPerimeter=0;exitX=0.878;exitY=0.373;exitDx=0;exitDy=0;exitPerimeter=0;" parent="1" source="Iv_WHNl3EavyuolXd3bb-78" target="Iv_WHNl3EavyuolXd3bb-2" edge="1">
          <mxGeometry width="50" height="50" relative="1" as="geometry">
            <mxPoint x="290" y="320" as="sourcePoint" />
            <mxPoint x="340" y="290" as="targetPoint" />
          </mxGeometry>
        </mxCell>
        <mxCell id="Iv_WHNl3EavyuolXd3bb-81" style="edgeStyle=orthogonalEdgeStyle;rounded=0;orthogonalLoop=1;jettySize=auto;html=1;exitX=0.5;exitY=0;exitDx=0;exitDy=0;entryX=0.5;entryY=1;entryDx=0;entryDy=0;" parent="1" source="Iv_WHNl3EavyuolXd3bb-82" target="Iv_WHNl3EavyuolXd3bb-5" edge="1">
          <mxGeometry relative="1" as="geometry" />
        </mxCell>
        <mxCell id="Iv_WHNl3EavyuolXd3bb-82" value="makes a" style="rhombus;whiteSpace=wrap;html=1;" parent="1" vertex="1">
          <mxGeometry x="685" y="370" width="70" height="70" as="geometry" />
        </mxCell>
        <mxCell id="Iv_WHNl3EavyuolXd3bb-83" value="" style="endArrow=none;html=1;rounded=0;entryX=0.222;entryY=0.71;entryDx=0;entryDy=0;exitX=0.25;exitY=0;exitDx=0;exitDy=0;entryPerimeter=0;" parent="1" source="Iv_WHNl3EavyuolXd3bb-3" target="Iv_WHNl3EavyuolXd3bb-82" edge="1">
          <mxGeometry width="50" height="50" relative="1" as="geometry">
            <mxPoint x="170" y="480" as="sourcePoint" />
            <mxPoint x="220" y="430" as="targetPoint" />
          </mxGeometry>
        </mxCell>
        <mxCell id="Iv_WHNl3EavyuolXd3bb-84" value="" style="endArrow=none;html=1;rounded=0;entryX=0.801;entryY=0.696;entryDx=0;entryDy=0;exitX=0.75;exitY=0;exitDx=0;exitDy=0;entryPerimeter=0;" parent="1" source="Iv_WHNl3EavyuolXd3bb-3" target="Iv_WHNl3EavyuolXd3bb-82" edge="1">
          <mxGeometry width="50" height="50" relative="1" as="geometry">
            <mxPoint x="710" y="505" as="sourcePoint" />
            <mxPoint x="713" y="433" as="targetPoint" />
          </mxGeometry>
        </mxCell>
        <mxCell id="Iv_WHNl3EavyuolXd3bb-85" value="nPlaceToBook" style="ellipse;whiteSpace=wrap;html=1;" parent="1" vertex="1">
          <mxGeometry x="105" y="200" width="80" height="50" as="geometry" />
        </mxCell>
        <mxCell id="Iv_WHNl3EavyuolXd3bb-86" value="" style="endArrow=none;html=1;rounded=0;entryX=0.5;entryY=1;entryDx=0;entryDy=0;exitX=0.5;exitY=0;exitDx=0;exitDy=0;" parent="1" source="Iv_WHNl3EavyuolXd3bb-6" target="Iv_WHNl3EavyuolXd3bb-85" edge="1">
          <mxGeometry width="50" height="50" relative="1" as="geometry">
            <mxPoint x="350" y="420" as="sourcePoint" />
            <mxPoint x="400" y="370" as="targetPoint" />
          </mxGeometry>
        </mxCell>
        <mxCell id="Iv_WHNl3EavyuolXd3bb-87" value="averageRating" style="ellipse;whiteSpace=wrap;html=1;" parent="1" vertex="1">
          <mxGeometry x="-15" y="300" width="80" height="50" as="geometry" />
        </mxCell>
        <mxCell id="Iv_WHNl3EavyuolXd3bb-88" value="" style="endArrow=none;html=1;rounded=0;entryX=1;entryY=0.5;entryDx=0;entryDy=0;exitX=0;exitY=0.75;exitDx=0;exitDy=0;" parent="1" source="Iv_WHNl3EavyuolXd3bb-6" target="Iv_WHNl3EavyuolXd3bb-87" edge="1">
          <mxGeometry width="50" height="50" relative="1" as="geometry">
            <mxPoint x="350" y="420" as="sourcePoint" />
            <mxPoint x="400" y="370" as="targetPoint" />
          </mxGeometry>
        </mxCell>
        <mxCell id="Iv_WHNl3EavyuolXd3bb-89" value="availabilityStatus" style="ellipse;whiteSpace=wrap;html=1;" parent="1" vertex="1">
          <mxGeometry x="-35" y="230" width="95" height="60" as="geometry" />
        </mxCell>
        <mxCell id="Iv_WHNl3EavyuolXd3bb-90" value="" style="endArrow=none;html=1;rounded=0;entryX=1;entryY=0.5;entryDx=0;entryDy=0;exitX=0;exitY=0.5;exitDx=0;exitDy=0;" parent="1" source="Iv_WHNl3EavyuolXd3bb-6" target="Iv_WHNl3EavyuolXd3bb-89" edge="1">
          <mxGeometry width="50" height="50" relative="1" as="geometry">
            <mxPoint x="350" y="420" as="sourcePoint" />
            <mxPoint x="400" y="370" as="targetPoint" />
          </mxGeometry>
        </mxCell>
        <mxCell id="Iv_WHNl3EavyuolXd3bb-91" value="" style="endArrow=none;html=1;rounded=0;entryX=0;entryY=0.5;entryDx=0;entryDy=0;" parent="1" target="Iv_WHNl3EavyuolXd3bb-92" edge="1">
          <mxGeometry width="50" height="50" relative="1" as="geometry">
            <mxPoint x="760" y="305" as="sourcePoint" />
            <mxPoint x="790" y="305" as="targetPoint" />
          </mxGeometry>
        </mxCell>
        <mxCell id="Iv_WHNl3EavyuolXd3bb-92" value="BookingStatus" style="ellipse;whiteSpace=wrap;html=1;" parent="1" vertex="1">
          <mxGeometry x="800" y="282.5" width="80" height="45" as="geometry" />
        </mxCell>
        <mxCell id="Iv_WHNl3EavyuolXd3bb-93" value="capacity" style="ellipse;whiteSpace=wrap;html=1;" parent="1" vertex="1">
          <mxGeometry x="205" y="690" width="80" height="50" as="geometry" />
        </mxCell>
        <mxCell id="Iv_WHNl3EavyuolXd3bb-94" value="" style="endArrow=none;html=1;rounded=0;entryX=1;entryY=1;entryDx=0;entryDy=0;exitX=0.5;exitY=0;exitDx=0;exitDy=0;" parent="1" source="Iv_WHNl3EavyuolXd3bb-93" target="Iv_WHNl3EavyuolXd3bb-4" edge="1">
          <mxGeometry width="50" height="50" relative="1" as="geometry">
            <mxPoint x="410" y="580" as="sourcePoint" />
            <mxPoint x="460" y="530" as="targetPoint" />
          </mxGeometry>
        </mxCell>
        <mxCell id="Iv_WHNl3EavyuolXd3bb-95" value="nPeople" style="ellipse;whiteSpace=wrap;html=1;" parent="1" vertex="1">
          <mxGeometry x="620" y="370" width="60" height="40" as="geometry" />
        </mxCell>
        <mxCell id="Iv_WHNl3EavyuolXd3bb-96" value="" style="endArrow=none;html=1;rounded=0;entryX=1;entryY=1;entryDx=0;entryDy=0;exitX=0;exitY=0;exitDx=0;exitDy=0;" parent="1" source="Iv_WHNl3EavyuolXd3bb-95" target="Iv_WHNl3EavyuolXd3bb-2" edge="1">
          <mxGeometry width="50" height="50" relative="1" as="geometry">
            <mxPoint x="470" y="400" as="sourcePoint" />
            <mxPoint x="520" y="350" as="targetPoint" />
          </mxGeometry>
        </mxCell>
        <mxCell id="Iv_WHNl3EavyuolXd3bb-97" value="place" style="rounded=1;whiteSpace=wrap;html=1;" parent="1" vertex="1">
          <mxGeometry x="-295" y="492.5" width="80" height="40" as="geometry" />
        </mxCell>
        <mxCell id="Iv_WHNl3EavyuolXd3bb-98" style="edgeStyle=orthogonalEdgeStyle;rounded=0;orthogonalLoop=1;jettySize=auto;html=1;exitX=0;exitY=0.5;exitDx=0;exitDy=0;entryX=1;entryY=0.5;entryDx=0;entryDy=0;" parent="1" source="Iv_WHNl3EavyuolXd3bb-99" target="Iv_WHNl3EavyuolXd3bb-97" edge="1">
          <mxGeometry relative="1" as="geometry" />
        </mxCell>
        <mxCell id="Iv_WHNl3EavyuolXd3bb-99" value="its at" style="rhombus;whiteSpace=wrap;html=1;" parent="1" vertex="1">
          <mxGeometry x="-160" y="477.5" width="70" height="70" as="geometry" />
        </mxCell>
        <mxCell id="Iv_WHNl3EavyuolXd3bb-100" value="" style="endArrow=none;html=1;rounded=0;entryX=1;entryY=0;entryDx=0;entryDy=0;exitX=0;exitY=0.25;exitDx=0;exitDy=0;" parent="1" source="Iv_WHNl3EavyuolXd3bb-4" target="Iv_WHNl3EavyuolXd3bb-99" edge="1">
          <mxGeometry width="50" height="50" relative="1" as="geometry">
            <mxPoint x="240" y="420" as="sourcePoint" />
            <mxPoint x="290" y="370" as="targetPoint" />
          </mxGeometry>
        </mxCell>
        <mxCell id="Iv_WHNl3EavyuolXd3bb-101" value="" style="endArrow=none;html=1;rounded=0;entryX=1;entryY=1;entryDx=0;entryDy=0;exitX=0;exitY=0.5;exitDx=0;exitDy=0;" parent="1" source="Iv_WHNl3EavyuolXd3bb-4" target="Iv_WHNl3EavyuolXd3bb-99" edge="1">
          <mxGeometry width="50" height="50" relative="1" as="geometry">
            <mxPoint x="240" y="420" as="sourcePoint" />
            <mxPoint x="290" y="370" as="targetPoint" />
          </mxGeometry>
        </mxCell>
        <mxCell id="Iv_WHNl3EavyuolXd3bb-102" value="&lt;u&gt;idPlace&lt;/u&gt;" style="ellipse;whiteSpace=wrap;html=1;" parent="1" vertex="1">
          <mxGeometry x="-290" y="583.75" width="70" height="32.5" as="geometry" />
        </mxCell>
        <mxCell id="Iv_WHNl3EavyuolXd3bb-103" value="" style="endArrow=none;html=1;rounded=0;entryX=0.5;entryY=1;entryDx=0;entryDy=0;exitX=0.5;exitY=0;exitDx=0;exitDy=0;" parent="1" source="Iv_WHNl3EavyuolXd3bb-102" target="Iv_WHNl3EavyuolXd3bb-97" edge="1">
          <mxGeometry width="50" height="50" relative="1" as="geometry">
            <mxPoint x="-30" y="530" as="sourcePoint" />
            <mxPoint x="20" y="480" as="targetPoint" />
          </mxGeometry>
        </mxCell>
        <mxCell id="u3u_qxVb343aGy1qji_D-1" value="&lt;u&gt;idGuest&lt;/u&gt;" style="ellipse;whiteSpace=wrap;html=1;" parent="1" vertex="1">
          <mxGeometry x="680" y="205" width="80" height="45" as="geometry" />
        </mxCell>
        <mxCell id="u3u_qxVb343aGy1qji_D-2" value="" style="endArrow=none;html=1;rounded=0;entryX=0.5;entryY=1;entryDx=0;entryDy=0;exitX=0.5;exitY=0;exitDx=0;exitDy=0;" parent="1" source="Iv_WHNl3EavyuolXd3bb-5" target="u3u_qxVb343aGy1qji_D-1" edge="1">
          <mxGeometry width="50" height="50" relative="1" as="geometry">
            <mxPoint x="550" y="360" as="sourcePoint" />
            <mxPoint x="600" y="310" as="targetPoint" />
          </mxGeometry>
        </mxCell>
        <mxCell id="u3u_qxVb343aGy1qji_D-3" value="&lt;u&gt;idHost&lt;/u&gt;" style="ellipse;whiteSpace=wrap;html=1;" parent="1" vertex="1">
          <mxGeometry x="220" y="280" width="80" height="50" as="geometry" />
        </mxCell>
        <mxCell id="u3u_qxVb343aGy1qji_D-4" value="" style="endArrow=none;html=1;rounded=0;entryX=1;entryY=0.5;entryDx=0;entryDy=0;exitX=0;exitY=0.5;exitDx=0;exitDy=0;" parent="1" source="u3u_qxVb343aGy1qji_D-3" target="Iv_WHNl3EavyuolXd3bb-6" edge="1">
          <mxGeometry width="50" height="50" relative="1" as="geometry">
            <mxPoint x="280" y="360" as="sourcePoint" />
            <mxPoint x="330" y="310" as="targetPoint" />
          </mxGeometry>
        </mxCell>
        <mxCell id="B_430-ntzCE1WxzTvtxI-1" value="ReservationStatus" style="ellipse;whiteSpace=wrap;html=1;" parent="1" vertex="1">
          <mxGeometry x="770" y="180" width="110" height="62.5" as="geometry" />
        </mxCell>
        <mxCell id="B_430-ntzCE1WxzTvtxI-2" value="" style="endArrow=none;html=1;rounded=0;entryX=0;entryY=1;entryDx=0;entryDy=0;exitX=1;exitY=0;exitDx=0;exitDy=0;" parent="1" source="Iv_WHNl3EavyuolXd3bb-5" target="B_430-ntzCE1WxzTvtxI-1" edge="1">
          <mxGeometry width="50" height="50" relative="1" as="geometry">
            <mxPoint x="440" y="360" as="sourcePoint" />
            <mxPoint x="490" y="310" as="targetPoint" />
          </mxGeometry>
        </mxCell>
        <mxCell id="B_430-ntzCE1WxzTvtxI-4" value="sumReview" style="ellipse;whiteSpace=wrap;html=1;" parent="1" vertex="1">
          <mxGeometry x="360" y="555" width="80" height="50" as="geometry" />
        </mxCell>
        <mxCell id="B_430-ntzCE1WxzTvtxI-5" value="nReview" style="ellipse;whiteSpace=wrap;html=1;" parent="1" vertex="1">
          <mxGeometry x="350" y="630" width="80" height="50" as="geometry" />
        </mxCell>
        <mxCell id="B_430-ntzCE1WxzTvtxI-6" value="" style="endArrow=none;html=1;rounded=0;entryX=1;entryY=1;entryDx=0;entryDy=0;exitX=0;exitY=0.5;exitDx=0;exitDy=0;" parent="1" source="B_430-ntzCE1WxzTvtxI-4" target="Iv_WHNl3EavyuolXd3bb-44" edge="1">
          <mxGeometry width="50" height="50" relative="1" as="geometry">
            <mxPoint x="300" y="660" as="sourcePoint" />
            <mxPoint x="350" y="610" as="targetPoint" />
          </mxGeometry>
        </mxCell>
        <mxCell id="B_430-ntzCE1WxzTvtxI-7" value="" style="endArrow=none;html=1;rounded=0;entryX=0.614;entryY=0.914;entryDx=0;entryDy=0;entryPerimeter=0;exitX=0.075;exitY=0.24;exitDx=0;exitDy=0;exitPerimeter=0;" parent="1" source="B_430-ntzCE1WxzTvtxI-5" target="Iv_WHNl3EavyuolXd3bb-44" edge="1">
          <mxGeometry width="50" height="50" relative="1" as="geometry">
            <mxPoint x="300" y="660" as="sourcePoint" />
            <mxPoint x="350" y="610" as="targetPoint" />
          </mxGeometry>
        </mxCell>
      </root>
    </mxGraphModel>
  </diagram>
</mxfile>
